<mxfile host="app.diagrams.net" modified="2023-05-14T22:10:54.649Z" agent="Mozilla/5.0 (Windows NT 10.0; Win64; x64) AppleWebKit/537.36 (KHTML, like Gecko) Chrome/113.0.0.0 Safari/537.36" etag="V3-vlEUaAjTMozY75hi5" version="21.3.0" type="device">
  <diagram id="R2lEEEUBdFMjLlhIrx00" name="Page-1">
    <mxGraphModel dx="1050" dy="549" grid="1" gridSize="10" guides="1" tooltips="1" connect="1" arrows="1" fold="1" page="1" pageScale="1" pageWidth="850" pageHeight="1100" math="0" shadow="0" extFonts="Permanent Marker^https://fonts.googleapis.com/css?family=Permanent+Marker">
      <root>
        <mxCell id="0" />
        <mxCell id="1" parent="0" />
        <mxCell id="6c1NoKwLzF34gWAjCSzM-51" style="edgeStyle=orthogonalEdgeStyle;rounded=0;orthogonalLoop=1;jettySize=auto;html=1;entryX=0.42;entryY=0.07;entryDx=0;entryDy=0;entryPerimeter=0;" edge="1" parent="1" source="6c1NoKwLzF34gWAjCSzM-2" target="6c1NoKwLzF34gWAjCSzM-44">
          <mxGeometry relative="1" as="geometry" />
        </mxCell>
        <mxCell id="6c1NoKwLzF34gWAjCSzM-2" value="&lt;b&gt;CONDUCTORES&lt;/b&gt;" style="shape=ext;margin=3;double=1;whiteSpace=wrap;html=1;align=center;" vertex="1" parent="1">
          <mxGeometry x="150" y="90" width="160" height="40" as="geometry" />
        </mxCell>
        <mxCell id="6c1NoKwLzF34gWAjCSzM-7" style="edgeStyle=orthogonalEdgeStyle;rounded=0;orthogonalLoop=1;jettySize=auto;html=1;entryX=0.105;entryY=1.075;entryDx=0;entryDy=0;entryPerimeter=0;" edge="1" parent="1" source="6c1NoKwLzF34gWAjCSzM-3" target="6c1NoKwLzF34gWAjCSzM-2">
          <mxGeometry relative="1" as="geometry" />
        </mxCell>
        <mxCell id="6c1NoKwLzF34gWAjCSzM-3" value="ID CONDUCTOR" style="ellipse;whiteSpace=wrap;html=1;align=center;" vertex="1" parent="1">
          <mxGeometry x="30" y="140" width="100" height="40" as="geometry" />
        </mxCell>
        <mxCell id="6c1NoKwLzF34gWAjCSzM-6" style="edgeStyle=orthogonalEdgeStyle;rounded=0;orthogonalLoop=1;jettySize=auto;html=1;" edge="1" parent="1" source="6c1NoKwLzF34gWAjCSzM-4" target="6c1NoKwLzF34gWAjCSzM-2">
          <mxGeometry relative="1" as="geometry" />
        </mxCell>
        <mxCell id="6c1NoKwLzF34gWAjCSzM-4" value="NOMBRE&amp;nbsp;" style="ellipse;whiteSpace=wrap;html=1;align=center;" vertex="1" parent="1">
          <mxGeometry x="170" y="190" width="100" height="40" as="geometry" />
        </mxCell>
        <mxCell id="6c1NoKwLzF34gWAjCSzM-8" style="edgeStyle=orthogonalEdgeStyle;rounded=0;orthogonalLoop=1;jettySize=auto;html=1;entryX=0.88;entryY=1.135;entryDx=0;entryDy=0;entryPerimeter=0;" edge="1" parent="1" source="6c1NoKwLzF34gWAjCSzM-5" target="6c1NoKwLzF34gWAjCSzM-2">
          <mxGeometry relative="1" as="geometry" />
        </mxCell>
        <mxCell id="6c1NoKwLzF34gWAjCSzM-5" value="REGISTRO" style="ellipse;whiteSpace=wrap;html=1;align=center;" vertex="1" parent="1">
          <mxGeometry x="340" y="140" width="100" height="40" as="geometry" />
        </mxCell>
        <mxCell id="6c1NoKwLzF34gWAjCSzM-50" style="edgeStyle=orthogonalEdgeStyle;rounded=0;orthogonalLoop=1;jettySize=auto;html=1;entryX=0.5;entryY=0.167;entryDx=0;entryDy=0;entryPerimeter=0;" edge="1" parent="1" source="6c1NoKwLzF34gWAjCSzM-9" target="6c1NoKwLzF34gWAjCSzM-44">
          <mxGeometry relative="1" as="geometry" />
        </mxCell>
        <mxCell id="6c1NoKwLzF34gWAjCSzM-9" value="&lt;b&gt;USUARIOS&lt;/b&gt;" style="shape=ext;margin=3;double=1;whiteSpace=wrap;html=1;align=center;" vertex="1" parent="1">
          <mxGeometry x="610" y="90" width="100" height="40" as="geometry" />
        </mxCell>
        <mxCell id="6c1NoKwLzF34gWAjCSzM-14" style="edgeStyle=orthogonalEdgeStyle;rounded=0;orthogonalLoop=1;jettySize=auto;html=1;" edge="1" parent="1" source="6c1NoKwLzF34gWAjCSzM-10" target="6c1NoKwLzF34gWAjCSzM-9">
          <mxGeometry relative="1" as="geometry">
            <mxPoint x="650" y="80" as="targetPoint" />
            <Array as="points" />
          </mxGeometry>
        </mxCell>
        <mxCell id="6c1NoKwLzF34gWAjCSzM-10" value="ID USUARIO" style="ellipse;whiteSpace=wrap;html=1;align=center;" vertex="1" parent="1">
          <mxGeometry x="600" y="10" width="100" height="40" as="geometry" />
        </mxCell>
        <mxCell id="6c1NoKwLzF34gWAjCSzM-15" style="edgeStyle=orthogonalEdgeStyle;rounded=0;orthogonalLoop=1;jettySize=auto;html=1;entryX=0.928;entryY=-0.025;entryDx=0;entryDy=0;entryPerimeter=0;" edge="1" parent="1" source="6c1NoKwLzF34gWAjCSzM-11" target="6c1NoKwLzF34gWAjCSzM-9">
          <mxGeometry relative="1" as="geometry" />
        </mxCell>
        <mxCell id="6c1NoKwLzF34gWAjCSzM-11" value="TELEFONO" style="ellipse;whiteSpace=wrap;html=1;align=center;" vertex="1" parent="1">
          <mxGeometry x="740" width="100" height="40" as="geometry" />
        </mxCell>
        <mxCell id="6c1NoKwLzF34gWAjCSzM-16" style="edgeStyle=orthogonalEdgeStyle;rounded=0;orthogonalLoop=1;jettySize=auto;html=1;entryX=1;entryY=0.25;entryDx=0;entryDy=0;" edge="1" parent="1" source="6c1NoKwLzF34gWAjCSzM-12" target="6c1NoKwLzF34gWAjCSzM-9">
          <mxGeometry relative="1" as="geometry" />
        </mxCell>
        <mxCell id="6c1NoKwLzF34gWAjCSzM-12" value="NOMBRE&amp;nbsp;" style="ellipse;whiteSpace=wrap;html=1;align=center;" vertex="1" parent="1">
          <mxGeometry x="750" y="80" width="100" height="40" as="geometry" />
        </mxCell>
        <mxCell id="6c1NoKwLzF34gWAjCSzM-17" style="edgeStyle=orthogonalEdgeStyle;rounded=0;orthogonalLoop=1;jettySize=auto;html=1;entryX=0.5;entryY=0;entryDx=0;entryDy=0;" edge="1" parent="1" source="6c1NoKwLzF34gWAjCSzM-13" target="6c1NoKwLzF34gWAjCSzM-2">
          <mxGeometry relative="1" as="geometry" />
        </mxCell>
        <mxCell id="6c1NoKwLzF34gWAjCSzM-13" value="TELEFONO" style="ellipse;whiteSpace=wrap;html=1;align=center;" vertex="1" parent="1">
          <mxGeometry x="40" y="20" width="100" height="40" as="geometry" />
        </mxCell>
        <mxCell id="6c1NoKwLzF34gWAjCSzM-47" style="edgeStyle=orthogonalEdgeStyle;rounded=0;orthogonalLoop=1;jettySize=auto;html=1;" edge="1" parent="1" source="6c1NoKwLzF34gWAjCSzM-19" target="6c1NoKwLzF34gWAjCSzM-44">
          <mxGeometry relative="1" as="geometry" />
        </mxCell>
        <mxCell id="6c1NoKwLzF34gWAjCSzM-19" value="ID VIAJE" style="ellipse;whiteSpace=wrap;html=1;align=center;" vertex="1" parent="1">
          <mxGeometry x="300" y="330" width="100" height="40" as="geometry" />
        </mxCell>
        <mxCell id="6c1NoKwLzF34gWAjCSzM-48" style="edgeStyle=orthogonalEdgeStyle;rounded=0;orthogonalLoop=1;jettySize=auto;html=1;entryX=0;entryY=1;entryDx=0;entryDy=0;" edge="1" parent="1" source="6c1NoKwLzF34gWAjCSzM-20" target="6c1NoKwLzF34gWAjCSzM-44">
          <mxGeometry relative="1" as="geometry" />
        </mxCell>
        <mxCell id="6c1NoKwLzF34gWAjCSzM-20" value="PRECIO" style="ellipse;whiteSpace=wrap;html=1;align=center;" vertex="1" parent="1">
          <mxGeometry x="400" y="430" width="100" height="40" as="geometry" />
        </mxCell>
        <mxCell id="6c1NoKwLzF34gWAjCSzM-49" style="edgeStyle=orthogonalEdgeStyle;rounded=0;orthogonalLoop=1;jettySize=auto;html=1;entryX=1;entryY=1;entryDx=0;entryDy=0;" edge="1" parent="1" source="6c1NoKwLzF34gWAjCSzM-21" target="6c1NoKwLzF34gWAjCSzM-44">
          <mxGeometry relative="1" as="geometry" />
        </mxCell>
        <mxCell id="6c1NoKwLzF34gWAjCSzM-21" value="RECORRIDO" style="ellipse;whiteSpace=wrap;html=1;align=center;" vertex="1" parent="1">
          <mxGeometry x="610" y="420" width="100" height="40" as="geometry" />
        </mxCell>
        <mxCell id="6c1NoKwLzF34gWAjCSzM-32" style="edgeStyle=orthogonalEdgeStyle;rounded=0;orthogonalLoop=1;jettySize=auto;html=1;exitX=0;exitY=0.5;exitDx=0;exitDy=0;entryX=0.648;entryY=1.075;entryDx=0;entryDy=0;entryPerimeter=0;" edge="1" parent="1" source="6c1NoKwLzF34gWAjCSzM-31" target="6c1NoKwLzF34gWAjCSzM-9">
          <mxGeometry relative="1" as="geometry" />
        </mxCell>
        <mxCell id="6c1NoKwLzF34gWAjCSzM-31" value="CUENTA DE PAGO" style="ellipse;whiteSpace=wrap;html=1;align=center;" vertex="1" parent="1">
          <mxGeometry x="730" y="150" width="100" height="40" as="geometry" />
        </mxCell>
        <mxCell id="6c1NoKwLzF34gWAjCSzM-34" style="edgeStyle=orthogonalEdgeStyle;rounded=0;orthogonalLoop=1;jettySize=auto;html=1;entryX=0.75;entryY=0;entryDx=0;entryDy=0;" edge="1" parent="1" source="6c1NoKwLzF34gWAjCSzM-33" target="6c1NoKwLzF34gWAjCSzM-2">
          <mxGeometry relative="1" as="geometry" />
        </mxCell>
        <mxCell id="6c1NoKwLzF34gWAjCSzM-33" value="APELLIDO" style="ellipse;whiteSpace=wrap;html=1;align=center;" vertex="1" parent="1">
          <mxGeometry x="290" y="20" width="100" height="40" as="geometry" />
        </mxCell>
        <mxCell id="6c1NoKwLzF34gWAjCSzM-36" style="edgeStyle=orthogonalEdgeStyle;rounded=0;orthogonalLoop=1;jettySize=auto;html=1;entryX=0.25;entryY=0;entryDx=0;entryDy=0;" edge="1" parent="1" source="6c1NoKwLzF34gWAjCSzM-35" target="6c1NoKwLzF34gWAjCSzM-9">
          <mxGeometry relative="1" as="geometry" />
        </mxCell>
        <mxCell id="6c1NoKwLzF34gWAjCSzM-35" value="APELLIDO" style="ellipse;whiteSpace=wrap;html=1;align=center;" vertex="1" parent="1">
          <mxGeometry x="490" y="40" width="100" height="40" as="geometry" />
        </mxCell>
        <mxCell id="6c1NoKwLzF34gWAjCSzM-38" style="edgeStyle=orthogonalEdgeStyle;rounded=0;orthogonalLoop=1;jettySize=auto;html=1;entryX=0;entryY=0.25;entryDx=0;entryDy=0;" edge="1" parent="1" source="6c1NoKwLzF34gWAjCSzM-37" target="6c1NoKwLzF34gWAjCSzM-2">
          <mxGeometry relative="1" as="geometry" />
        </mxCell>
        <mxCell id="6c1NoKwLzF34gWAjCSzM-37" value="CBU PARA COBRO" style="ellipse;whiteSpace=wrap;html=1;align=center;" vertex="1" parent="1">
          <mxGeometry x="10" y="70" width="100" height="40" as="geometry" />
        </mxCell>
        <mxCell id="6c1NoKwLzF34gWAjCSzM-45" style="edgeStyle=orthogonalEdgeStyle;rounded=0;orthogonalLoop=1;jettySize=auto;html=1;entryX=0.18;entryY=0.257;entryDx=0;entryDy=0;entryPerimeter=0;" edge="1" parent="1" source="6c1NoKwLzF34gWAjCSzM-39" target="6c1NoKwLzF34gWAjCSzM-44">
          <mxGeometry relative="1" as="geometry" />
        </mxCell>
        <mxCell id="6c1NoKwLzF34gWAjCSzM-39" value="TARIFA" style="ellipse;whiteSpace=wrap;html=1;align=center;" vertex="1" parent="1">
          <mxGeometry x="390" y="260" width="100" height="30" as="geometry" />
        </mxCell>
        <mxCell id="6c1NoKwLzF34gWAjCSzM-42" style="edgeStyle=orthogonalEdgeStyle;rounded=0;orthogonalLoop=1;jettySize=auto;html=1;entryX=1;entryY=0.25;entryDx=0;entryDy=0;" edge="1" parent="1" source="6c1NoKwLzF34gWAjCSzM-41">
          <mxGeometry relative="1" as="geometry">
            <mxPoint x="560" y="340" as="targetPoint" />
          </mxGeometry>
        </mxCell>
        <mxCell id="6c1NoKwLzF34gWAjCSzM-41" value="TIPO DE VEHICULO" style="ellipse;whiteSpace=wrap;html=1;align=center;" vertex="1" parent="1">
          <mxGeometry x="530" y="260" width="100" height="40" as="geometry" />
        </mxCell>
        <mxCell id="6c1NoKwLzF34gWAjCSzM-44" value="VIAJE" style="shape=rhombus;double=1;perimeter=rhombusPerimeter;whiteSpace=wrap;html=1;align=center;" vertex="1" parent="1">
          <mxGeometry x="450" y="320" width="120" height="60" as="geometry" />
        </mxCell>
      </root>
    </mxGraphModel>
  </diagram>
</mxfile>
